<svg xmlns="http://www.w3.org/2000/svg" width="119.748" height="121.717" viewBox="0 0 119.748 121.717">
  <g id="d123e8dd2a3ae00f3dc964cc00ab8027" transform="translate(-4.126 -3.141)">
    <path id="Path_1" data-name="Path 1" d="M87.259,100.139c.169-.325.331-.612.469-.909a.371.371,0,0,1,.41-.223c1.133.032,2.266.067,3.4.078.963.01,1.928-.008,2.892-.019,1.086-.013,2.172-.07,3.257-.039a9.977,9.977,0,0,1,4.16.968,7.816,7.816,0,0,1,3.547,3.483,8.709,8.709,0,0,1,.931,3.14,11.046,11.046,0,0,1-.451,4.717,8.381,8.381,0,0,1-3.5,4.458,11.353,11.353,0,0,1-4.2,1.622,26.034,26.034,0,0,1-4.8.209c-1.756.007-3.511-.031-5.267-.051-.307,0-.351-.061-.27-.354l.075-.27c.171-.538.263-.562.809-.652a2.83,2.83,0,0,0,1.087-.413c.184-.122.26-.44.332-.685a2.53,2.53,0,0,0,.067-.675q.038-5.138.065-10.272c0-.865-.017-1.732-.065-2.6a1.174,1.174,0,0,0-1.077-1.162c-.56-.111-1.124-.2-1.687-.3l-.189-.059Zm16.076,8.293c-.076-.682-.113-1.37-.235-2.042a7,7,0,0,0-2.238-4.119c-2-1.779-4.419-2.053-6.949-1.841-.576.048-.7.245-.709.837-.014.84-.028,1.68-.029,2.52q-.006,4,0,7.992c0,.758.009,1.516.031,2.272a1.736,1.736,0,0,0,1.063,1.729,7.029,7.029,0,0,0,3.706.336,5.78,5.78,0,0,0,4.344-3.223,10.061,10.061,0,0,0,1.016-4.461ZM108.2,117.5a1.727,1.727,0,0,1,.356-1.073c.057-.085.253-.081.388-.108l1.146-.227a.82.82,0,0,0,.675-.755,6.016,6.016,0,0,0,.077-.792c.025-2.1.049-4.194.059-6.291s0-4.2,0-6.3l-.009-.4a1.074,1.074,0,0,0-1.037-1.124l-1.453-.221c-.179-.024-.244-.11-.179-.269a4.877,4.877,0,0,1,.377-.8c.059-.09.258-.125.392-.122.694.01,1.388.062,2.082.061l6.041-.036a6.928,6.928,0,0,1,3.332.759,3.619,3.619,0,0,1,1.976,2.849,3.679,3.679,0,0,1-1.209,3.4,10.022,10.022,0,0,1-1.406.922l-.154.1c.438.161.855.3,1.261.466a4.514,4.514,0,0,1,2.633,2.463,4.746,4.746,0,0,1,.161,2.953,5.286,5.286,0,0,1-2.722,3.374,8.78,8.78,0,0,1-4.047,1.235c-1.33.067-2.666.042-4,.057l-.772,0q-1.926-.043-3.854-.1l-.117-.032Zm5.537-6.089h.013c0,.658-.009,1.316,0,1.974a6.418,6.418,0,0,0,.085,1.274A1.567,1.567,0,0,0,114.948,116a6.671,6.671,0,0,0,2.818.124,3.336,3.336,0,0,0,2.631-1.916,4.572,4.572,0,0,0,.308-2.618,3.39,3.39,0,0,0-1.854-2.615,5.016,5.016,0,0,0-2.2-.628c-.876-.033-1.753-.035-2.629-.062-.246-.007-.28.118-.279.32,0,.934,0,1.869,0,2.805Zm1.865-4.475c.479-.024,1.021-.031,1.56-.085a2.378,2.378,0,0,0,2.138-1.609,4.27,4.27,0,0,0,.19-1.538,3,3,0,0,0-2.066-2.929,8.243,8.243,0,0,0-3.053-.333c-.418.011-.605.194-.611.615l-.062,5.489c0,.218.091.312.3.319l1.6.071Z" fill="#94795d" fill-rule="evenodd"/>
    <path id="Path_2" data-name="Path 2" d="M10.543,116.448l-.073.944c-.68,0-1.307,0-1.934,0-1.181.012-2.362.031-3.544.048l-.114.007c-.169-.02-.476-.02-.484-.07a3.977,3.977,0,0,1-.021-.867c0-.033.116-.075.183-.091l.919-.205a.9.9,0,0,0,.8-.988c.031-.667.062-1.335.065-2,.009-1.642,0-3.282.006-4.924a.8.8,0,0,0-.49-.826c-.426-.188-.854-.372-1.285-.546-.2-.082-.469-.127-.445-.4s.281-.352.523-.407c1-.229,2.005-.452,3-.7.322-.079.63-.212,1.015-.346a5.323,5.323,0,0,1,.053.6l-.059.941a.422.422,0,0,0,.133.307c.048.037.209-.03.289-.092a9.25,9.25,0,0,1,2.789-1.538,3.26,3.26,0,0,1,3.928,1.34c.338.485.339.485.808.146a10.478,10.478,0,0,1,2.589-1.441,3.566,3.566,0,0,1,4.774,2.284,7.01,7.01,0,0,1,.36,2.335l-.019,5.3a.738.738,0,0,0,.56.822c.467.153.951.258,1.477.4l-.122.911c-.6,0-1.148,0-1.7,0-1.344.012-2.688.019-4.031.05-.234.006-.3-.052-.307-.271-.039-.7-.045-.7.615-.858l.222-.057c.645-.176.86-.374.865-1.028.015-1.878.054-3.761-.041-5.635a2.616,2.616,0,0,0-3.526-2.481,5.194,5.194,0,0,0-1.69.814.476.476,0,0,0-.194.488c.053.828.086,1.657.093,2.486.012,1.451-.006,2.9,0,4.354,0,.588.2.813.784.949l.863.2.16.036c.012.276.023.552.01.828-.008.173-.142.188-.292.185-.839-.021-1.679-.049-2.518-.047-1.021,0-2.041.031-3.061.049h-.24c0-.293-.014-.573.01-.852.005-.067.123-.161.2-.182l1.006-.213a.741.741,0,0,0,.655-.758,40.058,40.058,0,0,0,.007-6.03,3.7,3.7,0,0,0-.326-1.145A2.428,2.428,0,0,0,10.789,107a5.573,5.573,0,0,0-1.75.82.8.8,0,0,0-.378.695q0,3.007.013,6.014l.011.773a.861.861,0,0,0,.776.939c.344.078.692.131,1.082.2Z" fill="#50382b" fill-rule="evenodd"/>
    <path id="Path_3" data-name="Path 3" d="M71,105.285a1.909,1.909,0,0,1-.4,1.946c-.55.511-1.246.339-1.925.225.063.358.133.662.167.97a4.538,4.538,0,0,1-2.861,4.959,7.4,7.4,0,0,1-2.522.572.922.922,0,0,0-.851.719.776.776,0,0,0,.636.838,13.932,13.932,0,0,0,1.636.226c1.174.134,2.361.195,3.521.4a2.973,2.973,0,0,1,2.424,3.609,5.421,5.421,0,0,1-2.449,3.584,7.774,7.774,0,0,1-6.965,1.156,3.784,3.784,0,0,1-2.777-2.885,1.927,1.927,0,0,1,.582-1.961c.679-.61,1.418-1.154,2.129-1.73l.23-.231-.264-.185a2.552,2.552,0,0,1-1.53-1.633.474.474,0,0,1,.238-.6q.6-.361,1.193-.735a6.487,6.487,0,0,0,.543-.37c.236-.18.215-.314-.067-.418A3.892,3.892,0,0,1,60,112.612a4.271,4.271,0,0,1-.907-3.107,4.154,4.154,0,0,1,2.62-3.686,6.488,6.488,0,0,1,5.613-.135,4.649,4.649,0,0,0,2.189.312,2.188,2.188,0,0,0,1.49-.711Zm-6.843,12.681a2.862,2.862,0,0,0-2.649.993,2.17,2.17,0,0,0,0,3.167,3.957,3.957,0,0,0,2.523,1.144,5.39,5.39,0,0,0,3.255-.494,2.61,2.61,0,0,0,1.387-2.851,2.154,2.154,0,0,0-1.724-1.6,11.11,11.11,0,0,0-2.795-.357Zm-2.738-8.908c.051.387.072.779.158,1.158A2.989,2.989,0,0,0,63.2,112.5a2.136,2.136,0,0,0,3.114-1.316,4.853,4.853,0,0,0-.113-3.274,2.512,2.512,0,0,0-.91-1.184,2.352,2.352,0,0,0-3.525.749,3.947,3.947,0,0,0-.351,1.585Z" fill="#4f382b" fill-rule="evenodd"/>
    <path id="Path_4" data-name="Path 4" d="M47.35,105.038a2.791,2.791,0,0,1,.113.56c0,.371-.037.742-.058,1.113v.322l.314-.24a8.312,8.312,0,0,1,2.86-1.636,3.6,3.6,0,0,1,4.515,2.456,7.837,7.837,0,0,1,.344,2.311c.02,1.746.032,3.492.05,5.238.006.627.078.739.671.92a7.4,7.4,0,0,0,1.03.229c.191.03.273.105.263.292l0,.172c-.007.723-.057.756-.758.754-1.678,0-3.355.007-5.033.021-.5,0-.5.019-.551-.475l-.01-.284c.031-.426.041-.422.46-.484a7.935,7.935,0,0,0,.837-.179.605.605,0,0,0,.457-.562,3.074,3.074,0,0,0,.043-.426c-.024-1.908.007-3.818-.1-5.723A2.445,2.445,0,0,0,50,107.063a4.047,4.047,0,0,0-2.071.743,1.267,1.267,0,0,0-.494,1.155q.012,2.676.044,5.353c0,.391.015.782.052,1.17a.649.649,0,0,0,.6.687c.4.088.8.139,1.229.21l.036.328c.014.765-.066.822-.809.819-1.735-.007-3.47,0-5.2.023-.273,0-.389-.082-.382-.348l0-.114c-.045-.689-.025-.715.627-.827l.308-.062c.706-.159.887-.347.9-1.064.033-2.271.045-4.541.068-6.812a.7.7,0,0,0-.424-.714c-.426-.188-.856-.367-1.287-.544-.238-.1-.51-.16-.519-.489-.006-.232.242-.437.581-.506.681-.138,1.368-.253,2.041-.422s1.328-.391,2.062-.611Z" fill="#4f372b" fill-rule="evenodd"/>
    <path id="Path_5" data-name="Path 5" d="M84.865,110.97a6.4,6.4,0,0,1-2.083,5.123,6.758,6.758,0,0,1-7.287.967,4.962,4.962,0,0,1-2.289-2.357,7.451,7.451,0,0,1-.553-4.99,5.447,5.447,0,0,1,2.961-3.727,7.006,7.006,0,0,1,5.011-.709,5.481,5.481,0,0,1,4.142,4.667c.057.4.079.815.1,1.026Zm-2.577,1.149-.086-.01c0-.2.011-.4,0-.6a6.617,6.617,0,0,0-1.075-3.476,3.624,3.624,0,0,0-2.832-1.656,2.716,2.716,0,0,0-2.9,2.052,7.647,7.647,0,0,0,.66,6.024,3.73,3.73,0,0,0,2.059,1.769,2.776,2.776,0,0,0,3.85-2.022c.172-.678.222-1.387.328-2.081Z" fill="#4f382b" fill-rule="evenodd"/>
    <path id="Path_6" data-name="Path 6" d="M40.819,111.134a6.845,6.845,0,0,1-1.336,4.152,6.249,6.249,0,0,1-3.965,2.305,5.909,5.909,0,0,1-5.1-1.217,5.157,5.157,0,0,1-1.515-2.221,7.648,7.648,0,0,1-.333-4.358,5.37,5.37,0,0,1,2.63-3.614,6.963,6.963,0,0,1,5.19-.936,5.347,5.347,0,0,1,4.262,4.443c.1.474.116.964.171,1.446Zm-2.606,1-.069-.01v-.286A6.76,6.76,0,0,0,37,107.956a3.612,3.612,0,0,0-2.5-1.552,2.78,2.78,0,0,0-3.228,2.169,7.892,7.892,0,0,0,.42,5.335,4.023,4.023,0,0,0,2.358,2.317,2.78,2.78,0,0,0,3.847-2.034c.166-.669.216-1.367.319-2.053Z" fill="#4f372b" fill-rule="evenodd"/>
    <path id="Path_7" data-name="Path 7" d="M82.362,33.544a43.667,43.667,0,0,1,2.4,10.92,48.035,48.035,0,0,1-.786,13.859l-.126.366a6.174,6.174,0,0,0-.923.009c-2.543.4-5.083.814-7.624,1.226-2.627.426-5.256.835-7.878,1.289-.929.16-2.079-.031-2.454,1.253l-.18.061.127-7.678-.129-18.526,1.224-.21c2-.327,4-.66,6.006-.979q3.585-.569,7.174-1.119c1.056-.162,2.113-.313,3.169-.471Z" fill="#439934" fill-rule="evenodd"/>
    <path id="Path_8" data-name="Path 8" d="M62.265,84.911c-1.291-1.11-2.627-2.171-3.864-3.339A47.813,47.813,0,0,1,44.473,58.986a36.565,36.565,0,0,1-1.243-7.479,41.979,41.979,0,0,1-.117-5.328A62.591,62.591,0,0,1,45.5,32.317l.076-.1a2.224,2.224,0,0,1,.394.537q2.016,5.934,4,11.879Q56.229,63.3,62.484,81.982a2.974,2.974,0,0,0,.445.661l-.664,2.268Z" fill="#45a538" fill-rule="evenodd"/>
    <path id="Path_9" data-name="Path 9" d="M82.362,33.544c-1.057.157-2.114.309-3.169.471q-3.588.555-7.174,1.119c-2,.318-4,.651-6.006.979l-1.224.21-.01-.8c-.041-.656-.109-1.312-.118-1.968L64.524,21q-.048-3.928-.133-7.856c-.033-1.627-.068-3.255-.141-4.88-.04-.873-.181-1.742-.237-2.615-.033-.5.011-1.008.022-1.512.624,1.209,1.235,2.427,1.876,3.627a23.132,23.132,0,0,0,4.083,4.82A53.794,53.794,0,0,1,82.362,33.544Z" fill="#46a037" fill-rule="evenodd"/>
    <path id="Path_10" data-name="Path 10" d="M64.792,62.527l.18-.061c.375-1.284,1.525-1.093,2.454-1.253,2.622-.454,5.251-.863,7.878-1.289,2.541-.411,5.081-.825,7.624-1.226a6.173,6.173,0,0,1,.923-.009c-.475,1.7-.849,3.429-1.452,5.078a56.946,56.946,0,0,1-2.392,5.486,37.6,37.6,0,0,1-4.853,7.458c-1.466,1.762-3.1,3.393-4.737,5-.906.889-1.972,1.614-2.966,2.414l-.258-.176-.927-.792-.959-2.1a31.649,31.649,0,0,1-1.065-7.516l.018-.428.131-1.854c.043-.633.1-1.265.128-1.9.1-2.276.182-4.554.273-6.832Z" fill="#409433" fill-rule="evenodd"/>
    <path id="Path_11" data-name="Path 11" d="M64.792,62.527c-.09,2.278-.176,4.557-.273,6.835-.027.634-.084,1.266-.128,1.9l-.584.221c-1.3-3.821-2.6-7.6-3.867-11.392-2.1-6.271-4.176-12.551-6.274-18.824q-2.54-7.593-5.118-15.176a2.614,2.614,0,0,0-.471-.631l3.74-6.877a3.965,3.965,0,0,1,.379.672q2.595,7.68,5.169,15.367,3.342,10,6.667,20.014a8.193,8.193,0,0,0,.375.811l.512-.6q-.064,3.84-.127,7.678Z" fill="#4faa41" fill-rule="evenodd"/>
    <path id="Path_12" data-name="Path 12" d="M48.076,25.458a2.563,2.563,0,0,1,.471.631q2.575,7.583,5.118,15.176c2.1,6.273,4.173,12.553,6.274,18.824,1.27,3.79,2.569,7.57,3.867,11.392l.584-.221-.131,1.854-.119.427c-.2,2.029-.374,4.062-.622,6.087-.124,1.015-.389,2.011-.59,3.015a3.008,3.008,0,0,1-.445-.661Q56.218,63.308,49.974,44.628q-1.99-5.945-4-11.879a2.224,2.224,0,0,0-.394-.537l2.5-6.754Z" fill="#4aa73c" fill-rule="evenodd"/>
    <path id="Path_13" data-name="Path 13" d="M64.918,54.849l-.512.6a8.193,8.193,0,0,1-.375-.811Q60.692,44.627,57.364,34.62,54.8,26.931,52.195,19.253a3.965,3.965,0,0,0-.379-.672L56.441,12.5a2.452,2.452,0,0,1,.429.586q1.926,5.64,3.822,11.289c1.182,3.518,2.346,7.04,3.542,10.552.08.235.359.4.545.6l.01.8Z" fill="#57ae47" fill-rule="evenodd"/>
    <path id="Path_14" data-name="Path 14" d="M64.779,35.525c-.187-.2-.465-.365-.545-.6-1.195-3.512-2.36-7.034-3.542-10.552q-1.9-5.649-3.822-11.289a2.452,2.452,0,0,0-.429-.586c1.5-1.473,2.961-3,4.526-4.4,1.391-1.248,2.509-2.586,2.561-4.559l.11-.393.4,1c-.01.5-.055,1.01-.022,1.512.057.873.2,1.742.237,2.615.073,1.625.108,3.253.141,4.88q.08,3.927.133,7.856l.137,12.554c.01.657.079,1.313.119,1.969Z" fill="#60b24f" fill-rule="evenodd"/>
    <path id="Path_15" data-name="Path 15" d="M62.929,82.642c.2-1,.466-2,.59-3.015.248-2.024.419-4.058.622-6.087l.051-.008.05.009a31.649,31.649,0,0,0,1.065,7.516,2.328,2.328,0,0,0-.4.535c-.555,1.566-1.079,3.145-1.637,4.71a2.326,2.326,0,0,1-.439.568l-.571-1.96.665-2.268Z" fill="#a9aa88" fill-rule="evenodd"/>
    <path id="Path_16" data-name="Path 16" d="M62.835,86.871a2.345,2.345,0,0,0,.439-.568c.558-1.565,1.082-3.144,1.637-4.71a2.3,2.3,0,0,1,.4-.535l.959,2.1a3.722,3.722,0,0,0-.556.81l-1.836,5.392c-.076.217-.333.369-.507.552Z" fill="#b6b598" fill-rule="evenodd"/>
    <path id="Path_17" data-name="Path 17" d="M63.367,89.915c.173-.183.431-.335.507-.552l1.836-5.392a3.687,3.687,0,0,1,.556-.81l.928.791a1.63,1.63,0,0,0-.547,1.6l-.282.923a1.9,1.9,0,0,0-.377.477c-.641,1.836-1.252,3.682-1.9,5.517a2.626,2.626,0,0,1-.468.621l-.255-3.177Z" fill="#c2c1a7" fill-rule="evenodd"/>
    <path id="Path_18" data-name="Path 18" d="M63.621,93.091a2.573,2.573,0,0,0,.468-.621c.646-1.835,1.258-3.681,1.9-5.517a1.917,1.917,0,0,1,.377-.477l-.389,4.236c-.1.12-.254.225-.3.364l-1.294,3.708a4.777,4.777,0,0,1-.4.716c-.121-.158-.337-.311-.347-.475-.038-.642-.011-1.289-.008-1.934Z" fill="#cecdb7" fill-rule="evenodd"/>
    <path id="Path_19" data-name="Path 19" d="M63.977,95.5a4.776,4.776,0,0,0,.4-.716l1.294-3.708c.05-.14.2-.244.3-.364l.01,2.78-.931,2.387Z" fill="#dbdac7" fill-rule="evenodd"/>
    <path id="Path_20" data-name="Path 20" d="M65.055,95.88l.931-2.387.192,2.824Z" fill="#ebe9dc" fill-rule="evenodd"/>
    <path id="Path_21" data-name="Path 21" d="M66.646,85.554a1.634,1.634,0,0,1,.547-1.6l.258.176-.805,1.426Z" fill="#cecdb7" fill-rule="evenodd"/>
    <path id="Path_22" data-name="Path 22" d="M64.242,73.542l-.05-.009-.051.008.119-.427Z" fill="#4faa41" fill-rule="evenodd"/>
  </g>
</svg>
